<svg width="37" height="26" viewBox="0 0 37 26" fill="none" xmlns="http://www.w3.org/2000/svg">
<path d="M13.4493 14.7163C8.13635 14.7163 4.11685 17.1154 1.16231 22.0995C0.566497 23.1045 0.898368 24.4022 1.90342 24.9981C2.23001 25.1916 2.60252 25.2937 2.98217 25.2937H23.9166C25.0849 25.2937 26.0321 24.3465 26.0321 23.1782C26.0321 22.7986 25.9299 22.4261 25.7364 22.0995C22.7818 17.1153 18.7622 14.7163 13.4493 14.7163ZM28.2579 3.08083C29.3428 3.08083 30.2369 3.89746 30.3592 4.9496L30.3735 5.19635V9.42524L34.6045 9.42739C35.7728 9.42739 36.72 10.3746 36.72 11.5429C36.72 12.6278 35.9034 13.5219 34.8513 13.6442L34.6045 13.6584H30.3735V17.8895C30.3735 19.0578 29.4263 20.005 28.2579 20.005C27.1731 20.005 26.2789 19.1884 26.1566 18.1362L26.1424 17.8895V13.6584H21.9114C20.743 13.6584 19.7958 12.7112 19.7958 11.5429C19.7958 10.458 20.6125 9.56392 21.6646 9.4416L21.9114 9.42739H26.1424V5.19634C26.1424 4.02802 27.0896 3.08083 28.2579 3.08083ZM13.6257 0.336219L13.8017 0.33374C10.2967 0.33374 7.45515 3.17515 7.45515 6.68031C7.45515 10.1265 10.2017 12.9308 13.6253 13.0243L13.4493 13.0268C16.9544 13.0268 19.7958 10.1854 19.7958 6.68025C19.7958 3.23411 17.0493 0.429726 13.6257 0.336219Z" fill="#E8EFF3"/>
</svg>
