<svg width="30" height="30" viewBox="0 0 30 30" fill="none" xmlns="http://www.w3.org/2000/svg">
<path fill-rule="evenodd" clip-rule="evenodd" d="M14.74 3.66005C12.7391 3.65968 10.7731 4.18412 9.03819 5.18103C7.30331 6.17794 5.86024 7.61245 4.85302 9.34137C3.8458 11.0703 3.30966 13.0331 3.29811 15.034C3.28656 17.0349 3.80001 19.0038 4.78721 20.7442C5.45447 19.8771 6.31221 19.1749 7.29412 18.6922C8.27604 18.2094 9.35583 17.9589 10.45 17.96H19.03C20.1242 17.9589 21.204 18.2094 22.1859 18.6922C23.1678 19.1749 24.0255 19.8771 24.6928 20.7442C25.68 19.0038 26.1934 17.0349 26.1819 15.034C26.1704 13.0331 25.6342 11.0703 24.627 9.34137C23.6198 7.61245 22.1767 6.17794 20.4418 5.18103C18.7069 4.18412 16.7409 3.65968 14.74 3.66005ZM26.0985 23.7887C28.0104 21.2962 29.0446 18.2414 29.04 15.1C29.04 7.20215 22.6379 0.800049 14.74 0.800049C6.84212 0.800049 0.440019 7.20215 0.440019 15.1C0.435297 18.2414 1.46948 21.2962 3.38153 23.7887L3.37438 23.8145L3.88203 24.405C5.2232 25.973 6.88843 27.2316 8.76294 28.0939C10.6375 28.9563 12.6767 29.4019 14.74 29.4C17.6391 29.4054 20.4706 28.5247 22.8552 26.8761C23.8719 26.1737 24.7937 25.3432 25.598 24.405L26.1056 23.8145L26.0985 23.7887ZM14.74 6.52004C13.6022 6.52004 12.511 6.97202 11.7065 7.77656C10.902 8.58109 10.45 9.67226 10.45 10.81C10.45 11.9478 10.902 13.039 11.7065 13.8435C12.511 14.6481 13.6022 15.1 14.74 15.1C15.8778 15.1 16.969 14.6481 17.7735 13.8435C18.578 13.039 19.03 11.9478 19.03 10.81C19.03 9.67226 18.578 8.58109 17.7735 7.77656C16.969 6.97202 15.8778 6.52004 14.74 6.52004Z" fill="#E8EFF3"/>
</svg>
