<svg width="30" height="29" viewBox="0 0 30 29" fill="none" xmlns="http://www.w3.org/2000/svg">
<path fill-rule="evenodd" clip-rule="evenodd" d="M4.73066 12.6273C4.73066 10.4584 5.59229 8.37822 7.12599 6.84451C8.65969 5.31081 10.7398 4.44919 12.9088 4.44919C15.0778 4.44919 17.158 5.31081 18.6917 6.84451C20.2254 8.37822 21.087 10.4584 21.087 12.6273C21.087 14.7963 20.2254 16.8765 18.6917 18.4102C17.158 19.9439 15.0778 20.8055 12.9088 20.8055C10.7398 20.8055 8.65969 19.9439 7.12599 18.4102C5.59229 16.8765 4.73066 14.7963 4.73066 12.6273ZM12.9088 0.360108C10.9782 0.359861 9.07472 0.815309 7.35328 1.68941C5.63184 2.56351 4.14101 3.83158 3.00205 5.39049C1.8631 6.94939 1.10817 8.75512 0.79867 10.6608C0.489169 12.5665 0.633835 14.5183 1.2209 16.3575C1.80797 18.1968 2.82086 19.8715 4.1772 21.2454C5.53353 22.6194 7.19501 23.6538 9.02651 24.2646C10.858 24.8753 12.8078 25.0452 14.7173 24.7603C16.6268 24.4754 18.4422 23.7439 20.0156 22.6251L25.7751 28.3846C26.1607 28.757 26.6772 28.9631 27.2132 28.9585C27.7493 28.9538 28.2621 28.7388 28.6412 28.3597C29.0203 27.9806 29.2353 27.4678 29.2399 26.9318C29.2446 26.3957 29.0385 25.8792 28.6661 25.4936L22.9087 19.7362C24.2137 17.901 24.9883 15.7419 25.1477 13.4956C25.3071 11.2493 24.8451 9.00253 23.8123 7.00139C22.7795 5.00025 21.2158 3.32201 19.2926 2.15056C17.3693 0.979113 15.1607 0.35967 12.9088 0.360108Z" fill="#E8EFF3"/>
</svg>
