<svg width="69" height="68" viewBox="0 0 69 68" fill="none" xmlns="http://www.w3.org/2000/svg">
<ellipse cx="34.5217" cy="33.8" rx="33.8" ry="33.8" fill="#D32F2F"/>
<path d="M44.9867 30.485H37.8367V23.335C37.8367 22.3869 37.46 21.4775 36.7896 20.8071C36.1191 20.1367 35.2098 19.76 34.2617 19.76C33.3135 19.76 32.4042 20.1367 31.7338 20.8071C31.0633 21.4775 30.6867 22.3869 30.6867 23.335L30.8136 30.485H23.5367C22.5885 30.485 21.6792 30.8617 21.0088 31.5321C20.3383 32.2025 19.9617 33.1119 19.9617 34.06C19.9617 35.0082 20.3383 35.9175 21.0088 36.5879C21.6792 37.2584 22.5885 37.635 23.5367 37.635L30.8136 37.5081L30.6867 44.785C30.6867 45.7332 31.0633 46.6425 31.7338 47.3129C32.4042 47.9834 33.3135 48.36 34.2617 48.36C35.2098 48.36 36.1191 47.9834 36.7896 47.3129C37.46 46.6425 37.8367 45.7332 37.8367 44.785V37.5081L44.9867 37.635C45.9348 37.635 46.8441 37.2584 47.5146 36.5879C48.185 35.9175 48.5617 35.0082 48.5617 34.06C48.5617 33.1119 48.185 32.2025 47.5146 31.5321C46.8441 30.8617 45.9348 30.485 44.9867 30.485Z" fill="#E8EFF3"/>
</svg>
