<svg width="50" height="50" viewBox="0 0 50 50" fill="none" xmlns="http://www.w3.org/2000/svg">
<g filter="url(#filter0_d_4002_686)">
<path d="M34.0379 10.96C36.8407 10.96 39.1287 13.1579 39.2745 15.9249L39.2817 16.2038V34.3162C39.2817 37.119 37.0838 39.407 34.3167 39.5528L34.0379 39.56H15.9255C14.583 39.56 13.2916 39.0452 12.3173 38.1215C11.3431 37.1978 10.7602 35.9356 10.6888 34.595L10.6817 34.3162V16.2038C10.6817 13.401 12.8796 11.113 15.6466 10.9671L15.9255 10.96H34.0379ZM29.9867 28.12C29.4178 28.12 28.8722 28.346 28.4699 28.7482C28.0677 29.1505 27.8417 29.6961 27.8417 30.265C27.8417 30.8339 28.0677 31.3794 28.4699 31.7817C28.8722 32.184 29.4178 32.41 29.9867 32.41C30.5556 32.41 31.1012 32.184 31.5034 31.7817C31.9057 31.3794 32.1317 30.8339 32.1317 30.265C32.1317 29.6961 31.9057 29.1505 31.5034 28.7482C31.1012 28.346 30.5556 28.12 29.9867 28.12ZM19.9767 28.12C19.4078 28.12 18.8622 28.346 18.4599 28.7482C18.0577 29.1505 17.8317 29.6961 17.8317 30.265C17.8317 30.8339 18.0577 31.3794 18.4599 31.7817C18.8622 32.184 19.4078 32.41 19.9767 32.41C20.5456 32.41 21.0912 32.184 21.4934 31.7817C21.8957 31.3794 22.1217 30.8339 22.1217 30.265C22.1217 29.6961 21.8957 29.1505 21.4934 28.7482C21.0912 28.346 20.5456 28.12 19.9767 28.12ZM24.9817 23.115C24.4128 23.115 23.8672 23.341 23.4649 23.7432C23.0627 24.1455 22.8367 24.6911 22.8367 25.26C22.8367 25.8289 23.0627 26.3744 23.4649 26.7767C23.8672 27.179 24.4128 27.405 24.9817 27.405C25.5506 27.405 26.0962 27.179 26.4984 26.7767C26.9007 26.3744 27.1267 25.8289 27.1267 25.26C27.1267 24.6911 26.9007 24.1455 26.4984 23.7432C26.0962 23.341 25.5506 23.115 24.9817 23.115ZM19.9767 18.11C19.4078 18.11 18.8622 18.336 18.4599 18.7382C18.0577 19.1405 17.8317 19.6861 17.8317 20.255C17.8317 20.8239 18.0577 21.3694 18.4599 21.7717C18.8622 22.174 19.4078 22.4 19.9767 22.4C20.5456 22.4 21.0912 22.174 21.4934 21.7717C21.8957 21.3694 22.1217 20.8239 22.1217 20.255C22.1217 19.6861 21.8957 19.1405 21.4934 18.7382C21.0912 18.336 20.5456 18.11 19.9767 18.11ZM29.9867 18.11C29.4178 18.11 28.8722 18.336 28.4699 18.7382C28.0677 19.1405 27.8417 19.6861 27.8417 20.255C27.8417 20.8239 28.0677 21.3694 28.4699 21.7717C28.8722 22.174 29.4178 22.4 29.9867 22.4C30.5556 22.4 31.1012 22.174 31.5034 21.7717C31.9057 21.3694 32.1317 20.8239 32.1317 20.255C32.1317 19.6861 31.9057 19.1405 31.5034 18.7382C31.1012 18.336 30.5556 18.11 29.9867 18.11Z" fill="#E8EFF3"/>
</g>
<defs>
<filter id="filter0_d_4002_686" x="0.681671" y="0.959961" width="48.6" height="48.6001" filterUnits="userSpaceOnUse" color-interpolation-filters="sRGB">
<feFlood flood-opacity="0" result="BackgroundImageFix"/>
<feColorMatrix in="SourceAlpha" type="matrix" values="0 0 0 0 0 0 0 0 0 0 0 0 0 0 0 0 0 0 127 0" result="hardAlpha"/>
<feOffset/>
<feGaussianBlur stdDeviation="5"/>
<feComposite in2="hardAlpha" operator="out"/>
<feColorMatrix type="matrix" values="0 0 0 0 0.909804 0 0 0 0 0.937255 0 0 0 0 0.952941 0 0 0 1 0"/>
<feBlend mode="normal" in2="BackgroundImageFix" result="effect1_dropShadow_4002_686"/>
<feBlend mode="normal" in="SourceGraphic" in2="effect1_dropShadow_4002_686" result="shape"/>
</filter>
</defs>
</svg>
