<svg width="27" height="30" viewBox="0 0 27 30" fill="none" xmlns="http://www.w3.org/2000/svg">
<path d="M13.5177 29.56C14.4033 29.5611 15.2672 29.2862 15.9894 28.7737C16.7116 28.2611 17.2562 27.5363 17.5474 26.7H9.48793C9.77916 27.5363 10.3237 28.2611 11.0459 28.7737C11.7681 29.2862 12.6321 29.5611 13.5177 29.56ZM23.5277 18.9579V12.4C23.5277 7.79965 20.4031 3.92435 16.1703 2.7589C15.7513 1.70356 14.7275 0.959961 13.5177 0.959961C12.3079 0.959961 11.284 1.70356 10.865 2.7589C6.63222 3.92578 3.50766 7.79965 3.50766 12.4V18.9579L1.06665 21.3989C0.9336 21.5315 0.828083 21.6891 0.756175 21.8626C0.684268 22.0361 0.647388 22.2221 0.647661 22.41V23.84C0.647661 24.2192 0.798321 24.5829 1.0665 24.8511C1.33468 25.1193 1.6984 25.27 2.07766 25.27H24.9577C25.3369 25.27 25.7007 25.1193 25.9688 24.8511C26.237 24.5829 26.3877 24.2192 26.3877 23.84V22.41C26.388 22.2221 26.3511 22.0361 26.2792 21.8626C26.2073 21.6891 26.1017 21.5315 25.9687 21.3989L23.5277 18.9579Z" fill="#E8EFF3"/>
</svg>
