<svg width="31" height="30" viewBox="0 0 31 30" fill="none" xmlns="http://www.w3.org/2000/svg">
<path d="M10.62 9.55429L1.92839 10.8144L1.77445 10.8458C1.54141 10.9076 1.32896 11.0302 1.1588 11.2011C0.988647 11.3719 0.866874 11.5848 0.805922 11.8181C0.74497 12.0514 0.747022 12.2967 0.811869 12.5289C0.876716 12.7611 1.00203 12.972 1.17503 13.1399L7.47168 19.269L5.98675 27.9266L5.96904 28.0764C5.95477 28.3175 6.00482 28.5579 6.11406 28.7733C6.2233 28.9886 6.3878 29.171 6.59072 29.3019C6.79364 29.4327 7.02769 29.5073 7.2689 29.5179C7.51011 29.5286 7.74982 29.4749 7.96348 29.3625L15.7369 25.2755L23.4926 29.3625L23.6288 29.4251C23.8537 29.5137 24.0981 29.5409 24.3369 29.5038C24.5757 29.4668 24.8004 29.3669 24.9879 29.2143C25.1753 29.0618 25.3189 28.8622 25.4037 28.6359C25.4886 28.4096 25.5117 28.1648 25.4707 27.9266L23.9844 19.269L30.2838 13.1386L30.39 13.0228C30.5418 12.8358 30.6414 12.612 30.6785 12.374C30.7156 12.1361 30.689 11.8925 30.6013 11.6682C30.5137 11.4439 30.3681 11.2469 30.1795 11.0971C29.9909 10.9474 29.766 10.8503 29.5277 10.8158L20.8361 9.55429L16.9507 1.68006C16.8383 1.45191 16.6643 1.2598 16.4483 1.12546C16.2323 0.991121 15.9831 0.919922 15.7287 0.919922C15.4744 0.919922 15.2251 0.991121 15.0092 1.12546C14.7932 1.2598 14.6191 1.45191 14.5067 1.68006L10.62 9.55429Z" fill="#E8EFF3"/>
</svg>
